HIERARCHY
ROOT root
{
	OFFSET 0.000000 0.000000 0.000000
	CHANNELS 6 Xposition Yposition Zposition Zrotation Yrotation Xrotation
	JOINT lhip
	{
		OFFSET 0.058581 -0.082280 -0.017664
		CHANNELS 3 Zrotation Yrotation Xrotation
		JOINT lknee
		{
			OFFSET 0.043451 -0.386469 0.008037
			CHANNELS 3 Zrotation Yrotation Xrotation
			JOINT lankle
			{
				OFFSET -0.014790 -0.426874 -0.037428
				CHANNELS 3 Zrotation Yrotation Xrotation
				JOINT ltoe
				{
					OFFSET 0.041054 -0.060286 0.122042
					CHANNELS 3 Zrotation Yrotation Xrotation
					End Site
					{
						OFFSET 0.000000 0.000000 0.000000
					}
				}
			}
		}
	}
	JOINT rhip
	{
		OFFSET -0.060310 -0.090513 -0.013543
		CHANNELS 3 Zrotation Yrotation Xrotation
		JOINT rknee
		{
			OFFSET -0.043257 -0.383688 -0.004843
			CHANNELS 3 Zrotation Yrotation Xrotation
			JOINT rankle
			{
				OFFSET 0.019056 -0.420046 -0.034562
				CHANNELS 3 Zrotation Yrotation Xrotation
				JOINT rtoe
				{
					OFFSET -0.034840 -0.062106 0.130323
					CHANNELS 3 Zrotation Yrotation Xrotation
					End Site
					{
						OFFSET 0.000000 0.000000 0.000000
					}
				}
			}
		}
	}
	JOINT lowerback
	{
		OFFSET 0.004439 0.124404 -0.038385
		CHANNELS 3 Zrotation Yrotation Xrotation
		JOINT upperback
		{
			OFFSET 0.004488 0.137956 0.026820
			CHANNELS 3 Zrotation Yrotation Xrotation
			JOINT chest
			{
				OFFSET -0.002265 0.056032 0.002855
				CHANNELS 3 Zrotation Yrotation Xrotation
				JOINT lowerneck
				{
					OFFSET -0.013390 0.211636 -0.033468
					CHANNELS 3 Zrotation Yrotation Xrotation
					JOINT upperneck
					{
						OFFSET 0.010113 0.088937 0.050410
						CHANNELS 3 Zrotation Yrotation Xrotation
						End Site
						{
							OFFSET 0.000000 0.000000 0.000000
						}
					}
				}
				JOINT lclavicle
				{
					OFFSET 0.071702 0.114000 -0.018898
					CHANNELS 3 Zrotation Yrotation Xrotation
					JOINT lshoulder
					{
						OFFSET 0.122921 0.045205 -0.019046
						CHANNELS 3 Zrotation Yrotation Xrotation
						JOINT lelbow
						{
							OFFSET 0.255332 -0.015649 -0.022946
							CHANNELS 3 Zrotation Yrotation Xrotation
							JOINT lwrist
							{
								OFFSET 0.265709 0.012698 -0.007375
								CHANNELS 3 Zrotation Yrotation Xrotation
								End Site
								{
									OFFSET 0.000000 0.000000 0.000000
								}
							}
						}
					}
				}
				JOINT rclavicle
				{
					OFFSET -0.082954 0.112472 -0.023707
					CHANNELS 3 Zrotation Yrotation Xrotation
					JOINT rshoulder
					{
						OFFSET -0.113228 0.046853 -0.008472
						CHANNELS 3 Zrotation Yrotation Xrotation
						JOINT relbow
						{
							OFFSET -0.260127 -0.014369 -0.031269
							CHANNELS 3 Zrotation Yrotation Xrotation
							JOINT rwrist
							{
								OFFSET -0.269108 0.006794 -0.006027
								CHANNELS 3 Zrotation Yrotation Xrotation
								End Site
								{
									OFFSET 0.000000 0.000000 0.000000
								}
							}
						}
					}
				}
			}
		}
	}
}
MOTION
Frames: 11
Frame Time: 0.033333
0.854202 0.525371 0.967923 -62.618955 10.042716 85.488172 36.378417 -6.388501 3.728364 -6.302949 -40.194948 31.379234 -1.659513 17.730579 -43.734941 0.000000 -0.000000 0.000000 -22.981477 -18.500701 -14.570626 3.899813 -0.016795 9.876381 17.130561 -22.580790 41.568933 0.000000 -0.000000 0.000000 -19.821646 2.562089 13.384549 -0.427273 -10.218146 5.123856 1.875377 -8.910818 8.535486 2.180207 -9.460327 21.783224 16.620239 -7.088040 3.910137 -0.753719 9.649582 11.086551 -12.735856 -4.724133 -10.769654 -22.014663 -51.527622 28.285782 10.794548 -7.614448 -18.726338 4.487209 -21.748986 1.214933 50.898577 -24.486669 0.673441 -13.533923 53.247292 -5.837423 1.286117 1.724939 -9.072438 
0.832343 0.549739 0.941544 -61.074711 6.296914 85.804349 35.804305 -5.978941 2.842167 -7.209243 -40.712196 32.156400 -3.124160 16.542502 -44.975407 0.000000 -0.000000 0.000000 -23.881363 -18.002369 -15.037077 3.398081 -0.871914 17.465982 19.219805 -21.379808 31.447628 0.000000 -0.000000 0.000000 -19.383244 2.572309 14.764360 -0.541234 -10.481621 4.709957 1.440558 -8.983461 8.191699 2.209716 -8.355708 20.971870 15.819263 -9.024275 3.354537 -1.054171 8.980551 11.435236 -13.094800 -4.569740 -11.095224 -20.565399 -49.504881 27.149601 9.597110 -9.058995 -18.462370 5.863349 -21.721064 1.074889 51.493859 -25.948145 0.729347 -8.703016 51.456890 1.260726 2.142010 2.017133 -6.263730 
0.814320 0.574236 0.915044 -60.548373 2.673752 86.144582 34.711849 -6.082269 2.051280 -8.092039 -40.194937 33.660976 -4.627370 16.659587 -46.341725 0.000000 -0.000000 0.000000 -25.955378 -16.574370 -15.705071 2.659016 -5.193605 24.417578 18.403534 -18.804926 4.254892 0.000000 -0.000000 0.000000 -17.931980 2.073498 16.989965 -0.689869 -10.254118 2.687631 0.393576 -8.947230 9.066126 3.957801 -6.387993 17.287596 13.233079 -12.494450 4.324835 -2.382890 9.754297 9.447836 -13.404559 -4.741857 -10.318943 -18.575228 -47.373265 25.158475 9.135411 -9.259926 -19.462564 8.594265 -21.312466 -1.527931 50.917301 -25.598253 2.774475 -4.775326 48.612216 6.651449 1.536930 1.897572 -4.246176 
0.802264 0.597270 0.894113 -62.206736 0.016109 86.216414 34.583293 -4.929917 2.818226 -9.142179 -39.886381 34.281010 -5.329620 16.733922 -46.366529 0.000000 -0.000000 0.000000 -27.943014 -17.916480 -21.166024 4.622553 -3.071708 33.956477 18.044668 -14.925977 -5.383526 0.000000 -0.000000 0.000000 -15.877443 1.100236 19.236389 -0.735955 -8.825703 1.819645 -0.593180 -8.202525 9.731312 5.202366 -4.906422 12.117726 10.997332 -15.357422 6.530575 -4.625517 10.852876 6.770039 -14.320163 -5.273086 -9.761638 -15.963179 -44.623608 19.962922 10.206923 -7.923775 -20.480291 12.535576 -19.868473 -4.803105 50.201100 -21.601148 5.571026 -3.528563 44.936605 6.750280 1.292604 1.404657 -0.532843 
0.793869 0.615830 0.884083 -64.808518 -1.581082 85.989470 35.235801 -3.714224 5.570178 -8.580207 -38.329542 31.474983 -6.695766 15.482268 -45.432128 0.000000 -0.000000 0.000000 -29.564323 -18.401395 -26.880498 5.559532 -5.362923 42.471879 18.184915 -10.542694 -6.018514 0.000000 -0.000000 0.000000 -13.771731 -0.576805 22.478212 -0.519766 -7.527687 2.528262 -0.624693 -7.235455 7.662196 4.854243 -4.409463 10.594964 9.547912 -15.644491 5.288186 -7.968715 10.543495 5.954005 -15.822763 -3.868705 -9.662072 -13.058089 -40.987918 13.078972 10.192597 -7.452915 -20.689513 15.958283 -15.505876 -5.240920 48.705086 -15.437276 7.169136 -2.124379 42.577955 6.217829 -1.719838 1.840945 3.530291 
0.784174 0.633178 0.877853 -66.718055 -3.151398 86.846499 36.102741 -2.133473 7.181873 -8.174481 -36.590303 28.362413 -7.926846 13.049170 -43.384197 0.000000 -0.000000 0.000000 -30.071146 -19.244021 -30.038228 6.205253 -6.779622 45.810998 16.794953 -7.763095 -8.818493 0.000000 -0.000000 0.000000 -12.451235 -1.920013 22.997592 -0.198155 -7.324533 5.443483 -0.251003 -6.853755 5.338572 4.649437 -3.511093 9.393285 8.332212 -15.554716 4.536207 -10.340111 8.836862 5.646998 -17.805651 -1.005359 -8.886329 -11.133317 -37.797940 11.583430 7.546914 -7.348282 -18.547529 17.772027 -10.092294 -4.093110 46.528547 -9.713223 7.639571 0.878837 44.166215 8.528446 -1.726791 2.087723 3.889835 
0.776176 0.647837 0.875300 -67.957730 -5.207523 88.390766 35.163867 -1.301448 7.277304 -7.754053 -34.888502 26.672855 -8.504617 12.077871 -41.007465 0.000000 -0.000000 0.000000 -31.361882 -20.321327 -33.575574 6.503344 -8.555243 48.965098 16.527412 -5.621888 -9.506440 0.000000 -0.000000 0.000000 -10.541899 -3.294567 24.158081 -0.327921 -6.983324 4.526737 -0.709641 -6.795265 4.830030 4.770908 -3.196072 8.298828 6.863682 -15.590199 4.616671 -11.789196 7.515900 5.437823 -19.564917 -0.309829 -7.732460 -9.683958 -35.233148 14.473197 4.801355 -8.262064 -13.751135 18.466583 -6.978274 -3.622739 45.538567 -5.215260 8.485167 2.296815 47.364002 10.512097 -1.513666 2.869527 1.993212 
0.769105 0.660796 0.873748 -69.327890 -6.502537 89.710974 34.804908 0.022808 7.896070 -6.513784 -33.589911 24.425912 -9.571840 10.359392 -39.096016 0.000000 -0.000000 0.000000 -31.666847 -21.282993 -36.059535 6.399523 -10.054020 50.796916 15.927745 -3.399745 -10.266734 0.000000 -0.000000 0.000000 -7.882191 -4.558639 25.075029 -0.376597 -6.359685 4.296070 -1.044687 -6.741655 4.320954 4.315229 -3.344131 6.522849 6.036119 -15.365152 4.515030 -11.662179 5.465952 5.582739 -22.961973 0.170833 -7.025174 -8.516412 -34.248541 15.246081 4.026759 -9.104375 -11.786572 16.853850 -4.356644 -3.470943 46.716549 -2.174881 7.726011 1.702346 51.506036 10.065967 -1.234861 2.857819 -0.273026 
0.761282 0.671871 0.872909 -70.504354 -7.772060 90.666360 34.339366 0.714698 8.802667 -5.695602 -32.103585 22.623093 -10.290807 9.628145 -35.579285 0.000000 -0.000000 0.000000 -32.017655 -21.292495 -38.120681 6.277282 -10.763268 52.634374 15.465793 -2.132187 -11.156061 0.000000 -0.000000 0.000000 -5.922868 -5.567783 25.972109 -0.127296 -5.632172 4.762527 -1.040717 -6.465824 3.424449 4.165890 -3.727112 4.866670 5.293413 -15.275477 4.171255 -11.896566 4.111083 4.717097 -24.973847 -0.063216 -5.729882 -7.968961 -35.158330 15.307635 3.106990 -8.865315 -12.185704 15.867870 -2.212556 -3.804258 46.300662 0.023979 7.752867 -0.187003 54.994961 7.004005 0.109693 2.424383 -3.348806 
0.754212 0.682216 0.872341 -70.965199 -9.056057 91.291320 33.777959 1.107920 9.195056 -5.107237 -31.485744 21.247391 -10.946360 8.699138 -32.727937 0.000000 -0.000000 0.000000 -32.194771 -21.419953 -39.647288 5.889923 -10.813931 54.290404 14.599516 -1.373355 -12.224404 0.000000 -0.000000 0.000000 -4.479331 -6.720349 27.045463 0.236296 -5.386807 5.051323 -0.672746 -6.244398 2.842701 3.836849 -4.693866 3.734468 4.710844 -14.754784 3.882416 -12.308382 3.164317 3.864853 -26.227371 -0.600244 -5.065904 -7.377286 -37.086934 15.086769 3.318874 -8.626694 -12.601542 15.104938 -0.034845 -3.619006 44.898039 2.125103 7.414743 -1.833741 57.409044 4.138898 0.098059 2.725798 -4.105081 
0.747728 0.691331 0.871794 -71.349068 -10.211946 92.024749 32.874141 1.483720 8.907775 -4.552556 -31.206732 20.819308 -11.371975 8.290493 -29.993620 0.000000 -0.000000 0.000000 -32.275678 -21.105485 -41.574762 5.487791 -10.538269 56.206290 14.064754 -1.333845 -12.713527 0.000000 -0.000000 0.000000 -2.892129 -8.065119 27.825323 0.570909 -5.094313 5.050455 -0.585345 -6.163399 2.369681 3.398114 -5.417030 3.031244 4.363876 -14.381809 3.721578 -12.542159 2.310957 3.739333 -26.858306 -1.104981 -4.638817 -6.814430 -39.608679 14.539390 3.652138 -8.311576 -13.486439 14.642448 1.629174 -3.353755 43.149369 3.987817 6.868207 -3.518117 58.834175 2.068117 -0.436505 2.761092 -3.936966 
